<mxfile host="app.diagrams.net" modified="2023-05-03T05:12:12.602Z" agent="Mozilla/5.0 (Macintosh; Intel Mac OS X 10_15_7) AppleWebKit/537.36 (KHTML, like Gecko) Chrome/109.0.0.0 Safari/537.36" etag="2pS8xLj--EVoHMjjzosS" version="21.2.6" type="device">
  <diagram name="Page-1" id="M5K0BXyh6dM63ijvcR3z">
    <mxGraphModel dx="958" dy="1583" grid="1" gridSize="10" guides="1" tooltips="1" connect="1" arrows="1" fold="1" page="1" pageScale="1" pageWidth="850" pageHeight="1100" math="0" shadow="0">
      <root>
        <mxCell id="0" />
        <mxCell id="1" parent="0" />
        <mxCell id="KG-Lx-F5AGC2H34Jl8Lw-1" value="CoinGame" style="shape=umlFrame;whiteSpace=wrap;html=1;pointerEvents=0;width=80;height=30;" vertex="1" parent="1">
          <mxGeometry y="80" width="840" height="680" as="geometry" />
        </mxCell>
        <mxCell id="KG-Lx-F5AGC2H34Jl8Lw-6" value="game:CoinGame" style="shape=umlLifeline;perimeter=lifelinePerimeter;whiteSpace=wrap;html=1;container=1;dropTarget=0;collapsible=0;recursiveResize=0;outlineConnect=0;portConstraint=eastwest;newEdgeStyle={&quot;edgeStyle&quot;:&quot;elbowEdgeStyle&quot;,&quot;elbow&quot;:&quot;vertical&quot;,&quot;curved&quot;:0,&quot;rounded&quot;:0};" vertex="1" parent="1">
          <mxGeometry x="210" y="30" width="100" height="710" as="geometry" />
        </mxCell>
        <mxCell id="KG-Lx-F5AGC2H34Jl8Lw-17" value="" style="html=1;points=[];perimeter=orthogonalPerimeter;outlineConnect=0;targetShapes=umlLifeline;portConstraint=eastwest;newEdgeStyle={&quot;edgeStyle&quot;:&quot;elbowEdgeStyle&quot;,&quot;elbow&quot;:&quot;vertical&quot;,&quot;curved&quot;:0,&quot;rounded&quot;:0};" vertex="1" parent="KG-Lx-F5AGC2H34Jl8Lw-6">
          <mxGeometry x="45" y="70" width="10" height="40" as="geometry" />
        </mxCell>
        <mxCell id="KG-Lx-F5AGC2H34Jl8Lw-23" value="" style="html=1;points=[];perimeter=orthogonalPerimeter;outlineConnect=0;targetShapes=umlLifeline;portConstraint=eastwest;newEdgeStyle={&quot;edgeStyle&quot;:&quot;elbowEdgeStyle&quot;,&quot;elbow&quot;:&quot;vertical&quot;,&quot;curved&quot;:0,&quot;rounded&quot;:0};" vertex="1" parent="KG-Lx-F5AGC2H34Jl8Lw-6">
          <mxGeometry x="45" y="140" width="10" height="40" as="geometry" />
        </mxCell>
        <mxCell id="KG-Lx-F5AGC2H34Jl8Lw-35" value="" style="html=1;points=[];perimeter=orthogonalPerimeter;outlineConnect=0;targetShapes=umlLifeline;portConstraint=eastwest;newEdgeStyle={&quot;edgeStyle&quot;:&quot;elbowEdgeStyle&quot;,&quot;elbow&quot;:&quot;vertical&quot;,&quot;curved&quot;:0,&quot;rounded&quot;:0};" vertex="1" parent="KG-Lx-F5AGC2H34Jl8Lw-6">
          <mxGeometry x="45" y="200" width="10" height="40" as="geometry" />
        </mxCell>
        <mxCell id="KG-Lx-F5AGC2H34Jl8Lw-45" value="" style="html=1;points=[];perimeter=orthogonalPerimeter;outlineConnect=0;targetShapes=umlLifeline;portConstraint=eastwest;newEdgeStyle={&quot;edgeStyle&quot;:&quot;elbowEdgeStyle&quot;,&quot;elbow&quot;:&quot;vertical&quot;,&quot;curved&quot;:0,&quot;rounded&quot;:0};" vertex="1" parent="KG-Lx-F5AGC2H34Jl8Lw-6">
          <mxGeometry x="45" y="250" width="10" height="110" as="geometry" />
        </mxCell>
        <mxCell id="KG-Lx-F5AGC2H34Jl8Lw-60" value="" style="html=1;points=[];perimeter=orthogonalPerimeter;outlineConnect=0;targetShapes=umlLifeline;portConstraint=eastwest;newEdgeStyle={&quot;edgeStyle&quot;:&quot;elbowEdgeStyle&quot;,&quot;elbow&quot;:&quot;vertical&quot;,&quot;curved&quot;:0,&quot;rounded&quot;:0};" vertex="1" parent="KG-Lx-F5AGC2H34Jl8Lw-6">
          <mxGeometry x="45" y="380" width="10" height="190" as="geometry" />
        </mxCell>
        <mxCell id="KG-Lx-F5AGC2H34Jl8Lw-71" value="" style="html=1;points=[];perimeter=orthogonalPerimeter;outlineConnect=0;targetShapes=umlLifeline;portConstraint=eastwest;newEdgeStyle={&quot;edgeStyle&quot;:&quot;elbowEdgeStyle&quot;,&quot;elbow&quot;:&quot;vertical&quot;,&quot;curved&quot;:0,&quot;rounded&quot;:0};" vertex="1" parent="KG-Lx-F5AGC2H34Jl8Lw-6">
          <mxGeometry x="51" y="520" width="10" height="40" as="geometry" />
        </mxCell>
        <mxCell id="KG-Lx-F5AGC2H34Jl8Lw-72" value="userWins(userPick,resultOfFlipping):boolean" style="html=1;align=left;spacingLeft=2;endArrow=block;rounded=0;edgeStyle=orthogonalEdgeStyle;curved=0;rounded=0;" edge="1" target="KG-Lx-F5AGC2H34Jl8Lw-71" parent="KG-Lx-F5AGC2H34Jl8Lw-6" source="KG-Lx-F5AGC2H34Jl8Lw-60">
          <mxGeometry relative="1" as="geometry">
            <mxPoint x="70" y="480" as="sourcePoint" />
            <Array as="points">
              <mxPoint x="100" y="510" />
              <mxPoint x="100" y="540" />
            </Array>
          </mxGeometry>
        </mxCell>
        <mxCell id="KG-Lx-F5AGC2H34Jl8Lw-73" value="" style="html=1;points=[];perimeter=orthogonalPerimeter;outlineConnect=0;targetShapes=umlLifeline;portConstraint=eastwest;newEdgeStyle={&quot;edgeStyle&quot;:&quot;elbowEdgeStyle&quot;,&quot;elbow&quot;:&quot;vertical&quot;,&quot;curved&quot;:0,&quot;rounded&quot;:0};" vertex="1" parent="KG-Lx-F5AGC2H34Jl8Lw-6">
          <mxGeometry x="45" y="591" width="10" height="29" as="geometry" />
        </mxCell>
        <mxCell id="KG-Lx-F5AGC2H34Jl8Lw-97" value="" style="html=1;points=[];perimeter=orthogonalPerimeter;outlineConnect=0;targetShapes=umlLifeline;portConstraint=eastwest;newEdgeStyle={&quot;edgeStyle&quot;:&quot;elbowEdgeStyle&quot;,&quot;elbow&quot;:&quot;vertical&quot;,&quot;curved&quot;:0,&quot;rounded&quot;:0};" vertex="1" parent="KG-Lx-F5AGC2H34Jl8Lw-6">
          <mxGeometry x="45" y="650" width="10" height="39" as="geometry" />
        </mxCell>
        <mxCell id="KG-Lx-F5AGC2H34Jl8Lw-7" value="gameScreen:GameScreen" style="shape=umlLifeline;perimeter=lifelinePerimeter;whiteSpace=wrap;html=1;container=1;dropTarget=0;collapsible=0;recursiveResize=0;outlineConnect=0;portConstraint=eastwest;newEdgeStyle={&quot;edgeStyle&quot;:&quot;elbowEdgeStyle&quot;,&quot;elbow&quot;:&quot;vertical&quot;,&quot;curved&quot;:0,&quot;rounded&quot;:0};" vertex="1" parent="1">
          <mxGeometry x="340" y="30" width="100" height="710" as="geometry" />
        </mxCell>
        <mxCell id="KG-Lx-F5AGC2H34Jl8Lw-18" value="" style="html=1;points=[];perimeter=orthogonalPerimeter;outlineConnect=0;targetShapes=umlLifeline;portConstraint=eastwest;newEdgeStyle={&quot;edgeStyle&quot;:&quot;elbowEdgeStyle&quot;,&quot;elbow&quot;:&quot;vertical&quot;,&quot;curved&quot;:0,&quot;rounded&quot;:0};" vertex="1" parent="KG-Lx-F5AGC2H34Jl8Lw-7">
          <mxGeometry x="45" y="70" width="10" height="40" as="geometry" />
        </mxCell>
        <mxCell id="KG-Lx-F5AGC2H34Jl8Lw-29" value="" style="html=1;points=[];perimeter=orthogonalPerimeter;outlineConnect=0;targetShapes=umlLifeline;portConstraint=eastwest;newEdgeStyle={&quot;edgeStyle&quot;:&quot;elbowEdgeStyle&quot;,&quot;elbow&quot;:&quot;vertical&quot;,&quot;curved&quot;:0,&quot;rounded&quot;:0};" vertex="1" parent="KG-Lx-F5AGC2H34Jl8Lw-7">
          <mxGeometry x="45" y="140" width="10" height="40" as="geometry" />
        </mxCell>
        <mxCell id="KG-Lx-F5AGC2H34Jl8Lw-34" value="" style="html=1;points=[];perimeter=orthogonalPerimeter;outlineConnect=0;targetShapes=umlLifeline;portConstraint=eastwest;newEdgeStyle={&quot;edgeStyle&quot;:&quot;elbowEdgeStyle&quot;,&quot;elbow&quot;:&quot;vertical&quot;,&quot;curved&quot;:0,&quot;rounded&quot;:0};" vertex="1" parent="KG-Lx-F5AGC2H34Jl8Lw-7">
          <mxGeometry x="45" y="200" width="10" height="40" as="geometry" />
        </mxCell>
        <mxCell id="KG-Lx-F5AGC2H34Jl8Lw-68" value="" style="html=1;points=[];perimeter=orthogonalPerimeter;outlineConnect=0;targetShapes=umlLifeline;portConstraint=eastwest;newEdgeStyle={&quot;edgeStyle&quot;:&quot;elbowEdgeStyle&quot;,&quot;elbow&quot;:&quot;vertical&quot;,&quot;curved&quot;:0,&quot;rounded&quot;:0};" vertex="1" parent="KG-Lx-F5AGC2H34Jl8Lw-7">
          <mxGeometry x="45" y="380" width="10" height="40" as="geometry" />
        </mxCell>
        <mxCell id="KG-Lx-F5AGC2H34Jl8Lw-77" value="" style="html=1;points=[];perimeter=orthogonalPerimeter;outlineConnect=0;targetShapes=umlLifeline;portConstraint=eastwest;newEdgeStyle={&quot;edgeStyle&quot;:&quot;elbowEdgeStyle&quot;,&quot;elbow&quot;:&quot;vertical&quot;,&quot;curved&quot;:0,&quot;rounded&quot;:0};" vertex="1" parent="KG-Lx-F5AGC2H34Jl8Lw-7">
          <mxGeometry x="45" y="590" width="10" height="40" as="geometry" />
        </mxCell>
        <mxCell id="KG-Lx-F5AGC2H34Jl8Lw-8" value="user:Player" style="shape=umlLifeline;perimeter=lifelinePerimeter;whiteSpace=wrap;html=1;container=1;dropTarget=0;collapsible=0;recursiveResize=0;outlineConnect=0;portConstraint=eastwest;newEdgeStyle={&quot;edgeStyle&quot;:&quot;elbowEdgeStyle&quot;,&quot;elbow&quot;:&quot;vertical&quot;,&quot;curved&quot;:0,&quot;rounded&quot;:0};" vertex="1" parent="1">
          <mxGeometry x="470" y="30" width="100" height="710" as="geometry" />
        </mxCell>
        <mxCell id="KG-Lx-F5AGC2H34Jl8Lw-54" value="" style="html=1;points=[];perimeter=orthogonalPerimeter;outlineConnect=0;targetShapes=umlLifeline;portConstraint=eastwest;newEdgeStyle={&quot;edgeStyle&quot;:&quot;elbowEdgeStyle&quot;,&quot;elbow&quot;:&quot;vertical&quot;,&quot;curved&quot;:0,&quot;rounded&quot;:0};" vertex="1" parent="KG-Lx-F5AGC2H34Jl8Lw-8">
          <mxGeometry x="45" y="290" width="10" height="40" as="geometry" />
        </mxCell>
        <mxCell id="KG-Lx-F5AGC2H34Jl8Lw-9" value="com:Player" style="shape=umlLifeline;perimeter=lifelinePerimeter;whiteSpace=wrap;html=1;container=1;dropTarget=0;collapsible=0;recursiveResize=0;outlineConnect=0;portConstraint=eastwest;newEdgeStyle={&quot;edgeStyle&quot;:&quot;elbowEdgeStyle&quot;,&quot;elbow&quot;:&quot;vertical&quot;,&quot;curved&quot;:0,&quot;rounded&quot;:0};" vertex="1" parent="1">
          <mxGeometry x="600" y="30" width="100" height="710" as="geometry" />
        </mxCell>
        <mxCell id="KG-Lx-F5AGC2H34Jl8Lw-56" value="" style="html=1;points=[];perimeter=orthogonalPerimeter;outlineConnect=0;targetShapes=umlLifeline;portConstraint=eastwest;newEdgeStyle={&quot;edgeStyle&quot;:&quot;elbowEdgeStyle&quot;,&quot;elbow&quot;:&quot;vertical&quot;,&quot;curved&quot;:0,&quot;rounded&quot;:0};" vertex="1" parent="KG-Lx-F5AGC2H34Jl8Lw-9">
          <mxGeometry x="45" y="320" width="10" height="40" as="geometry" />
        </mxCell>
        <mxCell id="KG-Lx-F5AGC2H34Jl8Lw-10" value="theCoin:Coin" style="shape=umlLifeline;perimeter=lifelinePerimeter;whiteSpace=wrap;html=1;container=1;dropTarget=0;collapsible=0;recursiveResize=0;outlineConnect=0;portConstraint=eastwest;newEdgeStyle={&quot;edgeStyle&quot;:&quot;elbowEdgeStyle&quot;,&quot;elbow&quot;:&quot;vertical&quot;,&quot;curved&quot;:0,&quot;rounded&quot;:0};" vertex="1" parent="1">
          <mxGeometry x="730" y="30" width="100" height="710" as="geometry" />
        </mxCell>
        <mxCell id="KG-Lx-F5AGC2H34Jl8Lw-63" value="" style="html=1;points=[];perimeter=orthogonalPerimeter;outlineConnect=0;targetShapes=umlLifeline;portConstraint=eastwest;newEdgeStyle={&quot;edgeStyle&quot;:&quot;elbowEdgeStyle&quot;,&quot;elbow&quot;:&quot;vertical&quot;,&quot;curved&quot;:0,&quot;rounded&quot;:0};" vertex="1" parent="KG-Lx-F5AGC2H34Jl8Lw-10">
          <mxGeometry x="45" y="380" width="10" height="170" as="geometry" />
        </mxCell>
        <mxCell id="KG-Lx-F5AGC2H34Jl8Lw-21" value="" style="endArrow=open;endFill=1;endSize=12;html=1;rounded=0;" edge="1" parent="1" source="KG-Lx-F5AGC2H34Jl8Lw-6">
          <mxGeometry width="160" relative="1" as="geometry">
            <mxPoint x="290" y="110" as="sourcePoint" />
            <mxPoint x="390" y="110" as="targetPoint" />
          </mxGeometry>
        </mxCell>
        <mxCell id="KG-Lx-F5AGC2H34Jl8Lw-22" value="showSplashScreen:void" style="edgeLabel;html=1;align=center;verticalAlign=middle;resizable=0;points=[];" vertex="1" connectable="0" parent="KG-Lx-F5AGC2H34Jl8Lw-21">
          <mxGeometry x="0.3167" relative="1" as="geometry">
            <mxPoint x="-19" y="-10" as="offset" />
          </mxGeometry>
        </mxCell>
        <mxCell id="KG-Lx-F5AGC2H34Jl8Lw-24" value="" style="shape=umlLifeline;perimeter=lifelinePerimeter;whiteSpace=wrap;html=1;container=1;dropTarget=0;collapsible=0;recursiveResize=0;outlineConnect=0;portConstraint=eastwest;newEdgeStyle={&quot;edgeStyle&quot;:&quot;elbowEdgeStyle&quot;,&quot;elbow&quot;:&quot;vertical&quot;,&quot;curved&quot;:0,&quot;rounded&quot;:0};participant=umlActor;" vertex="1" parent="1">
          <mxGeometry x="20" y="30" width="20" height="710" as="geometry" />
        </mxCell>
        <mxCell id="KG-Lx-F5AGC2H34Jl8Lw-32" value="" style="endArrow=open;endFill=1;endSize=12;html=1;rounded=0;" edge="1" parent="1" source="KG-Lx-F5AGC2H34Jl8Lw-23" target="KG-Lx-F5AGC2H34Jl8Lw-7">
          <mxGeometry width="160" relative="1" as="geometry">
            <mxPoint x="270" y="180" as="sourcePoint" />
            <mxPoint x="370" y="180" as="targetPoint" />
            <Array as="points">
              <mxPoint x="320" y="180" />
            </Array>
          </mxGeometry>
        </mxCell>
        <mxCell id="KG-Lx-F5AGC2H34Jl8Lw-33" value="showPickScreen:void" style="edgeLabel;html=1;align=center;verticalAlign=middle;resizable=0;points=[];" vertex="1" connectable="0" parent="1">
          <mxGeometry x="336.5" y="130" as="geometry">
            <mxPoint x="-12" y="39" as="offset" />
          </mxGeometry>
        </mxCell>
        <mxCell id="KG-Lx-F5AGC2H34Jl8Lw-36" value="" style="endArrow=open;endFill=1;endSize=12;html=1;rounded=0;" edge="1" parent="1">
          <mxGeometry width="160" relative="1" as="geometry">
            <mxPoint x="260" y="239.57999999999998" as="sourcePoint" />
            <mxPoint x="385" y="239.57999999999998" as="targetPoint" />
            <Array as="points">
              <mxPoint x="315" y="239.57999999999998" />
            </Array>
          </mxGeometry>
        </mxCell>
        <mxCell id="KG-Lx-F5AGC2H34Jl8Lw-37" value="changePickArrow:void" style="edgeLabel;html=1;align=center;verticalAlign=middle;resizable=0;points=[];" vertex="1" connectable="0" parent="1">
          <mxGeometry x="336.5" y="190" as="geometry">
            <mxPoint x="-12" y="39" as="offset" />
          </mxGeometry>
        </mxCell>
        <mxCell id="KG-Lx-F5AGC2H34Jl8Lw-46" value="" style="endArrow=open;endFill=1;endSize=12;html=1;rounded=0;" edge="1" parent="1" target="KG-Lx-F5AGC2H34Jl8Lw-47">
          <mxGeometry width="160" relative="1" as="geometry">
            <mxPoint x="370" y="300" as="sourcePoint" />
            <mxPoint x="395" y="300" as="targetPoint" />
            <Array as="points">
              <mxPoint x="260" y="300" />
            </Array>
          </mxGeometry>
        </mxCell>
        <mxCell id="KG-Lx-F5AGC2H34Jl8Lw-47" value="" style="html=1;points=[];perimeter=orthogonalPerimeter;outlineConnect=0;targetShapes=umlLifeline;portConstraint=eastwest;newEdgeStyle={&quot;edgeStyle&quot;:&quot;elbowEdgeStyle&quot;,&quot;elbow&quot;:&quot;vertical&quot;,&quot;curved&quot;:0,&quot;rounded&quot;:0};" vertex="1" parent="1">
          <mxGeometry x="385" y="280" width="10" height="40" as="geometry" />
        </mxCell>
        <mxCell id="KG-Lx-F5AGC2H34Jl8Lw-50" value="showCountDown:void" style="edgeLabel;html=1;align=center;verticalAlign=middle;resizable=0;points=[];" vertex="1" connectable="0" parent="1">
          <mxGeometry x="336.5" y="250" as="geometry">
            <mxPoint x="-12" y="39" as="offset" />
          </mxGeometry>
        </mxCell>
        <mxCell id="KG-Lx-F5AGC2H34Jl8Lw-53" value="" style="endArrow=open;endFill=1;endSize=12;html=1;rounded=0;" edge="1" parent="1" target="KG-Lx-F5AGC2H34Jl8Lw-8">
          <mxGeometry width="160" relative="1" as="geometry">
            <mxPoint x="370" y="340" as="sourcePoint" />
            <mxPoint x="385" y="340" as="targetPoint" />
            <Array as="points">
              <mxPoint x="260" y="340" />
            </Array>
          </mxGeometry>
        </mxCell>
        <mxCell id="KG-Lx-F5AGC2H34Jl8Lw-55" value="setCoin(headOrTail):void" style="edgeLabel;html=1;align=center;verticalAlign=middle;resizable=0;points=[];" vertex="1" connectable="0" parent="1">
          <mxGeometry x="395" y="290" as="geometry">
            <mxPoint x="-12" y="39" as="offset" />
          </mxGeometry>
        </mxCell>
        <mxCell id="KG-Lx-F5AGC2H34Jl8Lw-57" value="" style="endArrow=open;endFill=1;endSize=12;html=1;rounded=0;" edge="1" parent="1" target="KG-Lx-F5AGC2H34Jl8Lw-9">
          <mxGeometry width="160" relative="1" as="geometry">
            <mxPoint x="375" y="370" as="sourcePoint" />
            <mxPoint x="525" y="370" as="targetPoint" />
            <Array as="points">
              <mxPoint x="260" y="370" />
            </Array>
          </mxGeometry>
        </mxCell>
        <mxCell id="KG-Lx-F5AGC2H34Jl8Lw-58" value="setCoin(oppositeOfUser):void" style="edgeLabel;html=1;align=center;verticalAlign=middle;resizable=0;points=[];" vertex="1" connectable="0" parent="1">
          <mxGeometry x="470" y="320" as="geometry">
            <mxPoint x="-12" y="39" as="offset" />
          </mxGeometry>
        </mxCell>
        <mxCell id="KG-Lx-F5AGC2H34Jl8Lw-62" value="" style="endArrow=open;endFill=1;endSize=12;html=1;rounded=0;" edge="1" parent="1">
          <mxGeometry width="160" relative="1" as="geometry">
            <mxPoint x="370.25" y="470" as="sourcePoint" />
            <mxPoint x="779.75" y="470" as="targetPoint" />
            <Array as="points">
              <mxPoint x="260.25" y="470" />
            </Array>
          </mxGeometry>
        </mxCell>
        <mxCell id="KG-Lx-F5AGC2H34Jl8Lw-64" value="flipCoin():String" style="edgeLabel;html=1;align=center;verticalAlign=middle;resizable=0;points=[];" vertex="1" connectable="0" parent="1">
          <mxGeometry x="530.25" y="420" as="geometry">
            <mxPoint x="-12" y="39" as="offset" />
          </mxGeometry>
        </mxCell>
        <mxCell id="KG-Lx-F5AGC2H34Jl8Lw-65" value="" style="endArrow=open;endFill=1;endSize=12;html=1;rounded=0;" edge="1" parent="1">
          <mxGeometry width="160" relative="1" as="geometry">
            <mxPoint x="779.75" y="500" as="sourcePoint" />
            <mxPoint x="260.25" y="500" as="targetPoint" />
            <Array as="points">
              <mxPoint x="730.25" y="500" />
            </Array>
          </mxGeometry>
        </mxCell>
        <mxCell id="KG-Lx-F5AGC2H34Jl8Lw-66" value="resultOfFlippedCoin" style="edgeLabel;html=1;align=center;verticalAlign=middle;resizable=0;points=[];" vertex="1" connectable="0" parent="1">
          <mxGeometry x="530.25" y="450" as="geometry">
            <mxPoint x="-12" y="39" as="offset" />
          </mxGeometry>
        </mxCell>
        <mxCell id="KG-Lx-F5AGC2H34Jl8Lw-69" value="" style="endArrow=open;endFill=1;endSize=12;html=1;rounded=0;" edge="1" parent="1">
          <mxGeometry width="160" relative="1" as="geometry">
            <mxPoint x="370" y="430" as="sourcePoint" />
            <mxPoint x="385" y="430" as="targetPoint" />
            <Array as="points">
              <mxPoint x="260" y="430" />
            </Array>
          </mxGeometry>
        </mxCell>
        <mxCell id="KG-Lx-F5AGC2H34Jl8Lw-70" value="showFlippingCoin:void" style="edgeLabel;html=1;align=center;verticalAlign=middle;resizable=0;points=[];" vertex="1" connectable="0" parent="1">
          <mxGeometry x="336.5" y="380" as="geometry">
            <mxPoint x="-12" y="39" as="offset" />
          </mxGeometry>
        </mxCell>
        <mxCell id="KG-Lx-F5AGC2H34Jl8Lw-74" value="" style="endArrow=open;endFill=1;endSize=12;html=1;rounded=0;" edge="1" parent="1" source="KG-Lx-F5AGC2H34Jl8Lw-7">
          <mxGeometry width="160" relative="1" as="geometry">
            <mxPoint x="370.25" y="630" as="sourcePoint" />
            <mxPoint x="390" y="630" as="targetPoint" />
            <Array as="points">
              <mxPoint x="260.25" y="630" />
            </Array>
          </mxGeometry>
        </mxCell>
        <mxCell id="KG-Lx-F5AGC2H34Jl8Lw-76" value="showResult(Boolean result):void" style="edgeLabel;html=1;align=center;verticalAlign=middle;resizable=0;points=[];" vertex="1" connectable="0" parent="1">
          <mxGeometry x="336.5" y="580" as="geometry">
            <mxPoint x="-12" y="39" as="offset" />
          </mxGeometry>
        </mxCell>
        <mxCell id="KG-Lx-F5AGC2H34Jl8Lw-89" value=":Main" style="shape=umlLifeline;perimeter=lifelinePerimeter;whiteSpace=wrap;html=1;container=1;dropTarget=0;collapsible=0;recursiveResize=0;outlineConnect=0;portConstraint=eastwest;newEdgeStyle={&quot;edgeStyle&quot;:&quot;elbowEdgeStyle&quot;,&quot;elbow&quot;:&quot;vertical&quot;,&quot;curved&quot;:0,&quot;rounded&quot;:0};" vertex="1" parent="1">
          <mxGeometry x="80" y="30" width="100" height="710" as="geometry" />
        </mxCell>
        <mxCell id="KG-Lx-F5AGC2H34Jl8Lw-90" value="" style="html=1;points=[];perimeter=orthogonalPerimeter;outlineConnect=0;targetShapes=umlLifeline;portConstraint=eastwest;newEdgeStyle={&quot;edgeStyle&quot;:&quot;elbowEdgeStyle&quot;,&quot;elbow&quot;:&quot;vertical&quot;,&quot;curved&quot;:0,&quot;rounded&quot;:0};" vertex="1" parent="KG-Lx-F5AGC2H34Jl8Lw-89">
          <mxGeometry x="45" y="70" width="10" height="550" as="geometry" />
        </mxCell>
        <mxCell id="KG-Lx-F5AGC2H34Jl8Lw-99" value="" style="html=1;points=[];perimeter=orthogonalPerimeter;outlineConnect=0;targetShapes=umlLifeline;portConstraint=eastwest;newEdgeStyle={&quot;edgeStyle&quot;:&quot;elbowEdgeStyle&quot;,&quot;elbow&quot;:&quot;vertical&quot;,&quot;curved&quot;:0,&quot;rounded&quot;:0};" vertex="1" parent="KG-Lx-F5AGC2H34Jl8Lw-89">
          <mxGeometry x="45" y="650" width="10" height="39" as="geometry" />
        </mxCell>
        <mxCell id="KG-Lx-F5AGC2H34Jl8Lw-26" value="" style="endArrow=open;endFill=1;endSize=12;html=1;rounded=0;" edge="1" parent="1" target="KG-Lx-F5AGC2H34Jl8Lw-6">
          <mxGeometry width="160" relative="1" as="geometry">
            <mxPoint x="130" y="180" as="sourcePoint" />
            <mxPoint x="220" y="180" as="targetPoint" />
            <Array as="points">
              <mxPoint x="30" y="180" />
            </Array>
          </mxGeometry>
        </mxCell>
        <mxCell id="KG-Lx-F5AGC2H34Jl8Lw-27" value="pressStart:void" style="edgeLabel;html=1;align=center;verticalAlign=middle;resizable=0;points=[];" vertex="1" connectable="0" parent="KG-Lx-F5AGC2H34Jl8Lw-26">
          <mxGeometry x="0.5259" y="3" relative="1" as="geometry">
            <mxPoint x="-42" y="-7" as="offset" />
          </mxGeometry>
        </mxCell>
        <mxCell id="KG-Lx-F5AGC2H34Jl8Lw-41" value="" style="endArrow=open;endFill=1;endSize=12;html=1;rounded=0;" edge="1" parent="1" target="KG-Lx-F5AGC2H34Jl8Lw-6">
          <mxGeometry width="160" relative="1" as="geometry">
            <mxPoint x="130" y="239.57999999999998" as="sourcePoint" />
            <mxPoint x="220" y="239.57999999999998" as="targetPoint" />
            <Array as="points">
              <mxPoint x="30" y="240" />
            </Array>
          </mxGeometry>
        </mxCell>
        <mxCell id="KG-Lx-F5AGC2H34Jl8Lw-42" value="pressArrow:void" style="edgeLabel;html=1;align=center;verticalAlign=middle;resizable=0;points=[];" vertex="1" connectable="0" parent="KG-Lx-F5AGC2H34Jl8Lw-41">
          <mxGeometry x="0.5259" y="3" relative="1" as="geometry">
            <mxPoint x="-42" y="-7" as="offset" />
          </mxGeometry>
        </mxCell>
        <mxCell id="KG-Lx-F5AGC2H34Jl8Lw-43" value="" style="endArrow=open;endFill=1;endSize=12;html=1;rounded=0;" edge="1" parent="1" source="KG-Lx-F5AGC2H34Jl8Lw-24" target="KG-Lx-F5AGC2H34Jl8Lw-6">
          <mxGeometry width="160" relative="1" as="geometry">
            <mxPoint x="130" y="300" as="sourcePoint" />
            <mxPoint x="220" y="300" as="targetPoint" />
            <Array as="points">
              <mxPoint x="100" y="310" />
            </Array>
          </mxGeometry>
        </mxCell>
        <mxCell id="KG-Lx-F5AGC2H34Jl8Lw-44" value="pressEnter:void" style="edgeLabel;html=1;align=center;verticalAlign=middle;resizable=0;points=[];" vertex="1" connectable="0" parent="KG-Lx-F5AGC2H34Jl8Lw-43">
          <mxGeometry x="0.5259" y="3" relative="1" as="geometry">
            <mxPoint x="-65" y="-7" as="offset" />
          </mxGeometry>
        </mxCell>
        <mxCell id="KG-Lx-F5AGC2H34Jl8Lw-91" value="" style="endArrow=open;endFill=1;endSize=12;html=1;rounded=0;" edge="1" parent="1">
          <mxGeometry width="160" relative="1" as="geometry">
            <mxPoint x="130" y="110" as="sourcePoint" />
            <mxPoint x="260" y="110" as="targetPoint" />
          </mxGeometry>
        </mxCell>
        <mxCell id="KG-Lx-F5AGC2H34Jl8Lw-92" value="run" style="edgeLabel;html=1;align=center;verticalAlign=middle;resizable=0;points=[];" vertex="1" connectable="0" parent="1">
          <mxGeometry x="190" y="100" as="geometry" />
        </mxCell>
        <mxCell id="KG-Lx-F5AGC2H34Jl8Lw-93" value="" style="endArrow=open;endFill=1;endSize=12;html=1;rounded=0;" edge="1" parent="1">
          <mxGeometry width="160" relative="1" as="geometry">
            <mxPoint x="130" y="710" as="sourcePoint" />
            <mxPoint x="260" y="710" as="targetPoint" />
          </mxGeometry>
        </mxCell>
        <mxCell id="KG-Lx-F5AGC2H34Jl8Lw-94" value="dispose" style="edgeLabel;html=1;align=center;verticalAlign=middle;resizable=0;points=[];" vertex="1" connectable="0" parent="1">
          <mxGeometry x="210" y="660" as="geometry">
            <mxPoint x="-12" y="39" as="offset" />
          </mxGeometry>
        </mxCell>
        <mxCell id="KG-Lx-F5AGC2H34Jl8Lw-100" value="CoinGame" style="swimlane;fontStyle=1;align=center;verticalAlign=top;childLayout=stackLayout;horizontal=1;startSize=26;horizontalStack=0;resizeParent=1;resizeParentMax=0;resizeLast=0;collapsible=1;marginBottom=0;whiteSpace=wrap;html=1;" vertex="1" parent="1">
          <mxGeometry x="80" y="-190" width="160" height="160" as="geometry" />
        </mxCell>
        <mxCell id="KG-Lx-F5AGC2H34Jl8Lw-101" value="filed : Coin&lt;br&gt;filed:&amp;nbsp; Player" style="text;strokeColor=none;fillColor=none;align=left;verticalAlign=top;spacingLeft=4;spacingRight=4;overflow=hidden;rotatable=0;points=[[0,0.5],[1,0.5]];portConstraint=eastwest;whiteSpace=wrap;html=1;" vertex="1" parent="KG-Lx-F5AGC2H34Jl8Lw-100">
          <mxGeometry y="26" width="160" height="54" as="geometry" />
        </mxCell>
        <mxCell id="KG-Lx-F5AGC2H34Jl8Lw-102" value="" style="line;strokeWidth=1;fillColor=none;align=left;verticalAlign=middle;spacingTop=-1;spacingLeft=3;spacingRight=3;rotatable=0;labelPosition=right;points=[];portConstraint=eastwest;strokeColor=inherit;" vertex="1" parent="KG-Lx-F5AGC2H34Jl8Lw-100">
          <mxGeometry y="80" width="160" height="8" as="geometry" />
        </mxCell>
        <mxCell id="KG-Lx-F5AGC2H34Jl8Lw-103" value="+ pressStart()&lt;br&gt;+ pressArrow()&lt;br&gt;+ pressEnter()&lt;br&gt;+ userWins()" style="text;strokeColor=none;fillColor=none;align=left;verticalAlign=top;spacingLeft=4;spacingRight=4;overflow=hidden;rotatable=0;points=[[0,0.5],[1,0.5]];portConstraint=eastwest;whiteSpace=wrap;html=1;" vertex="1" parent="KG-Lx-F5AGC2H34Jl8Lw-100">
          <mxGeometry y="88" width="160" height="72" as="geometry" />
        </mxCell>
        <mxCell id="KG-Lx-F5AGC2H34Jl8Lw-108" value="GameScreen" style="swimlane;fontStyle=1;align=center;verticalAlign=top;childLayout=stackLayout;horizontal=1;startSize=26;horizontalStack=0;resizeParent=1;resizeParentMax=0;resizeLast=0;collapsible=1;marginBottom=0;whiteSpace=wrap;html=1;" vertex="1" parent="1">
          <mxGeometry x="250" y="-190" width="160" height="150" as="geometry" />
        </mxCell>
        <mxCell id="KG-Lx-F5AGC2H34Jl8Lw-110" value="" style="line;strokeWidth=1;fillColor=none;align=left;verticalAlign=middle;spacingTop=-1;spacingLeft=3;spacingRight=3;rotatable=0;labelPosition=right;points=[];portConstraint=eastwest;strokeColor=inherit;" vertex="1" parent="KG-Lx-F5AGC2H34Jl8Lw-108">
          <mxGeometry y="26" width="160" height="8" as="geometry" />
        </mxCell>
        <mxCell id="KG-Lx-F5AGC2H34Jl8Lw-111" value="static showSplashScreen&lt;br&gt;static showPickScreen&lt;br&gt;static changePickArrow&lt;br&gt;static showCountDown&lt;br&gt;static showFlippingCoin&lt;br&gt;static showResult" style="text;strokeColor=none;fillColor=none;align=left;verticalAlign=top;spacingLeft=4;spacingRight=4;overflow=hidden;rotatable=0;points=[[0,0.5],[1,0.5]];portConstraint=eastwest;whiteSpace=wrap;html=1;" vertex="1" parent="KG-Lx-F5AGC2H34Jl8Lw-108">
          <mxGeometry y="34" width="160" height="116" as="geometry" />
        </mxCell>
        <mxCell id="KG-Lx-F5AGC2H34Jl8Lw-112" value="Coin" style="swimlane;fontStyle=1;align=center;verticalAlign=top;childLayout=stackLayout;horizontal=1;startSize=26;horizontalStack=0;resizeParent=1;resizeParentMax=0;resizeLast=0;collapsible=1;marginBottom=0;whiteSpace=wrap;html=1;" vertex="1" parent="1">
          <mxGeometry x="590" y="-190" width="160" height="86" as="geometry" />
        </mxCell>
        <mxCell id="KG-Lx-F5AGC2H34Jl8Lw-113" value="+ field: sideState" style="text;strokeColor=none;fillColor=none;align=left;verticalAlign=top;spacingLeft=4;spacingRight=4;overflow=hidden;rotatable=0;points=[[0,0.5],[1,0.5]];portConstraint=eastwest;whiteSpace=wrap;html=1;" vertex="1" parent="KG-Lx-F5AGC2H34Jl8Lw-112">
          <mxGeometry y="26" width="160" height="26" as="geometry" />
        </mxCell>
        <mxCell id="KG-Lx-F5AGC2H34Jl8Lw-114" value="" style="line;strokeWidth=1;fillColor=none;align=left;verticalAlign=middle;spacingTop=-1;spacingLeft=3;spacingRight=3;rotatable=0;labelPosition=right;points=[];portConstraint=eastwest;strokeColor=inherit;" vertex="1" parent="KG-Lx-F5AGC2H34Jl8Lw-112">
          <mxGeometry y="52" width="160" height="8" as="geometry" />
        </mxCell>
        <mxCell id="KG-Lx-F5AGC2H34Jl8Lw-115" value="String flipCoin()" style="text;strokeColor=none;fillColor=none;align=left;verticalAlign=top;spacingLeft=4;spacingRight=4;overflow=hidden;rotatable=0;points=[[0,0.5],[1,0.5]];portConstraint=eastwest;whiteSpace=wrap;html=1;" vertex="1" parent="KG-Lx-F5AGC2H34Jl8Lw-112">
          <mxGeometry y="60" width="160" height="26" as="geometry" />
        </mxCell>
        <mxCell id="KG-Lx-F5AGC2H34Jl8Lw-116" value="Player" style="swimlane;fontStyle=1;align=center;verticalAlign=top;childLayout=stackLayout;horizontal=1;startSize=26;horizontalStack=0;resizeParent=1;resizeParentMax=0;resizeLast=0;collapsible=1;marginBottom=0;whiteSpace=wrap;html=1;" vertex="1" parent="1">
          <mxGeometry x="420" y="-190" width="160" height="150" as="geometry" />
        </mxCell>
        <mxCell id="KG-Lx-F5AGC2H34Jl8Lw-117" value="filed : pickedSide" style="text;strokeColor=none;fillColor=none;align=left;verticalAlign=top;spacingLeft=4;spacingRight=4;overflow=hidden;rotatable=0;points=[[0,0.5],[1,0.5]];portConstraint=eastwest;whiteSpace=wrap;html=1;" vertex="1" parent="KG-Lx-F5AGC2H34Jl8Lw-116">
          <mxGeometry y="26" width="160" height="26" as="geometry" />
        </mxCell>
        <mxCell id="KG-Lx-F5AGC2H34Jl8Lw-118" value="" style="line;strokeWidth=1;fillColor=none;align=left;verticalAlign=middle;spacingTop=-1;spacingLeft=3;spacingRight=3;rotatable=0;labelPosition=right;points=[];portConstraint=eastwest;strokeColor=inherit;" vertex="1" parent="KG-Lx-F5AGC2H34Jl8Lw-116">
          <mxGeometry y="52" width="160" height="8" as="geometry" />
        </mxCell>
        <mxCell id="KG-Lx-F5AGC2H34Jl8Lw-119" value="setCoin(String headOrTail)&lt;br&gt;" style="text;strokeColor=none;fillColor=none;align=left;verticalAlign=top;spacingLeft=4;spacingRight=4;overflow=hidden;rotatable=0;points=[[0,0.5],[1,0.5]];portConstraint=eastwest;whiteSpace=wrap;html=1;" vertex="1" parent="KG-Lx-F5AGC2H34Jl8Lw-116">
          <mxGeometry y="60" width="160" height="90" as="geometry" />
        </mxCell>
      </root>
    </mxGraphModel>
  </diagram>
</mxfile>
